<mxfile host="Electron" modified="2023-07-02T23:22:13.434Z" agent="Mozilla/5.0 (Windows NT 10.0; Win64; x64) AppleWebKit/537.36 (KHTML, like Gecko) draw.io/21.4.0 Chrome/112.0.5615.204 Electron/24.5.1 Safari/537.36" etag="Fm6w7P6il4ODV0HJb6k6" version="21.4.0" type="device">
  <diagram name="Page-1" id="TRqYeGaIRFkrvlXN8oWK">
    <mxGraphModel dx="1595" dy="697" grid="0" gridSize="10" guides="1" tooltips="1" connect="1" arrows="1" fold="1" page="0" pageScale="1" pageWidth="850" pageHeight="1100" math="0" shadow="0">
      <root>
        <mxCell id="0" />
        <mxCell id="1" parent="0" />
        <mxCell id="kQl4fcB4rexwGMnjng-n-4" style="rounded=0;orthogonalLoop=1;jettySize=auto;html=1;strokeWidth=2;endArrow=block;endFill=1;" edge="1" parent="1" source="kQl4fcB4rexwGMnjng-n-3" target="kQl4fcB4rexwGMnjng-n-1">
          <mxGeometry relative="1" as="geometry" />
        </mxCell>
        <mxCell id="kQl4fcB4rexwGMnjng-n-3" value="EC2 Instance" style="sketch=0;points=[[0,0,0],[0.25,0,0],[0.5,0,0],[0.75,0,0],[1,0,0],[0,1,0],[0.25,1,0],[0.5,1,0],[0.75,1,0],[1,1,0],[0,0.25,0],[0,0.5,0],[0,0.75,0],[1,0.25,0],[1,0.5,0],[1,0.75,0]];outlineConnect=0;fontColor=#FFFFFF;gradientColor=#F78E04;gradientDirection=north;fillColor=#D05C17;strokeColor=#ffffff;dashed=0;verticalLabelPosition=bottom;verticalAlign=top;align=center;html=1;fontSize=12;fontStyle=1;aspect=fixed;shape=mxgraph.aws4.resourceIcon;resIcon=mxgraph.aws4.ec2;" vertex="1" parent="1">
          <mxGeometry x="-47" y="220" width="69" height="69" as="geometry" />
        </mxCell>
        <mxCell id="kQl4fcB4rexwGMnjng-n-6" style="rounded=0;orthogonalLoop=1;jettySize=auto;html=1;strokeWidth=2;endArrow=block;endFill=1;" edge="1" parent="1" source="kQl4fcB4rexwGMnjng-n-5" target="kQl4fcB4rexwGMnjng-n-1">
          <mxGeometry relative="1" as="geometry" />
        </mxCell>
        <mxCell id="kQl4fcB4rexwGMnjng-n-5" value="CLI" style="outlineConnect=0;dashed=0;verticalLabelPosition=bottom;verticalAlign=top;align=center;html=1;shape=mxgraph.aws3.cli;fillColor=#444444;gradientColor=none;fontStyle=1" vertex="1" parent="1">
          <mxGeometry x="-50" y="440" width="72" height="82.5" as="geometry" />
        </mxCell>
        <mxCell id="kQl4fcB4rexwGMnjng-n-9" style="edgeStyle=orthogonalEdgeStyle;rounded=0;orthogonalLoop=1;jettySize=auto;html=1;strokeWidth=2;endArrow=block;endFill=1;entryX=0;entryY=0.5;entryDx=0;entryDy=0;" edge="1" parent="1" source="kQl4fcB4rexwGMnjng-n-1" target="kQl4fcB4rexwGMnjng-n-21">
          <mxGeometry relative="1" as="geometry" />
        </mxCell>
        <mxCell id="kQl4fcB4rexwGMnjng-n-1" value="CloudWatch" style="sketch=0;points=[[0,0,0],[0.25,0,0],[0.5,0,0],[0.75,0,0],[1,0,0],[0,1,0],[0.25,1,0],[0.5,1,0],[0.75,1,0],[1,1,0],[0,0.25,0],[0,0.5,0],[0,0.75,0],[1,0.25,0],[1,0.5,0],[1,0.75,0]];points=[[0,0,0],[0.25,0,0],[0.5,0,0],[0.75,0,0],[1,0,0],[0,1,0],[0.25,1,0],[0.5,1,0],[0.75,1,0],[1,1,0],[0,0.25,0],[0,0.5,0],[0,0.75,0],[1,0.25,0],[1,0.5,0],[1,0.75,0]];outlineConnect=0;fontColor=#FFFFFF;gradientColor=#F34482;gradientDirection=north;fillColor=#BC1356;strokeColor=#ffffff;dashed=0;verticalLabelPosition=bottom;verticalAlign=top;align=center;html=1;fontSize=12;fontStyle=1;aspect=fixed;shape=mxgraph.aws4.resourceIcon;resIcon=mxgraph.aws4.cloudwatch_2;labelBackgroundColor=default;spacingTop=7;" vertex="1" parent="1">
          <mxGeometry x="100" y="329" width="80" height="80" as="geometry" />
        </mxCell>
        <mxCell id="kQl4fcB4rexwGMnjng-n-14" style="rounded=0;orthogonalLoop=1;jettySize=auto;html=1;entryX=0;entryY=0.5;entryDx=0;entryDy=0;entryPerimeter=0;strokeWidth=2;endArrow=block;endFill=1;" edge="1" parent="1" source="kQl4fcB4rexwGMnjng-n-7" target="kQl4fcB4rexwGMnjng-n-10">
          <mxGeometry relative="1" as="geometry" />
        </mxCell>
        <mxCell id="kQl4fcB4rexwGMnjng-n-7" value="Kinesis Stream" style="sketch=0;points=[[0,0,0],[0.25,0,0],[0.5,0,0],[0.75,0,0],[1,0,0],[0,1,0],[0.25,1,0],[0.5,1,0],[0.75,1,0],[1,1,0],[0,0.25,0],[0,0.5,0],[0,0.75,0],[1,0.25,0],[1,0.5,0],[1,0.75,0]];outlineConnect=0;fontColor=#FFFFFF;gradientColor=#945DF2;gradientDirection=north;fillColor=#5A30B5;strokeColor=#ffffff;dashed=0;verticalLabelPosition=bottom;verticalAlign=top;align=center;html=1;fontSize=12;fontStyle=1;aspect=fixed;shape=mxgraph.aws4.resourceIcon;resIcon=mxgraph.aws4.kinesis_data_streams;" vertex="1" parent="1">
          <mxGeometry x="380" y="330" width="78" height="78" as="geometry" />
        </mxCell>
        <mxCell id="kQl4fcB4rexwGMnjng-n-13" style="edgeStyle=orthogonalEdgeStyle;rounded=0;orthogonalLoop=1;jettySize=auto;html=1;strokeWidth=2;endArrow=block;endFill=1;" edge="1" parent="1" source="kQl4fcB4rexwGMnjng-n-10" target="kQl4fcB4rexwGMnjng-n-11">
          <mxGeometry relative="1" as="geometry" />
        </mxCell>
        <mxCell id="kQl4fcB4rexwGMnjng-n-10" value="Firehose" style="sketch=0;points=[[0,0,0],[0.25,0,0],[0.5,0,0],[0.75,0,0],[1,0,0],[0,1,0],[0.25,1,0],[0.5,1,0],[0.75,1,0],[1,1,0],[0,0.25,0],[0,0.5,0],[0,0.75,0],[1,0.25,0],[1,0.5,0],[1,0.75,0]];outlineConnect=0;fontColor=#FFFFFF;gradientColor=#945DF2;gradientDirection=north;fillColor=#5A30B5;strokeColor=#ffffff;dashed=0;verticalLabelPosition=bottom;verticalAlign=top;align=center;html=1;fontSize=12;fontStyle=1;aspect=fixed;shape=mxgraph.aws4.resourceIcon;resIcon=mxgraph.aws4.kinesis_data_firehose;" vertex="1" parent="1">
          <mxGeometry x="540" y="245.5" width="78" height="78" as="geometry" />
        </mxCell>
        <mxCell id="kQl4fcB4rexwGMnjng-n-11" value="OpenSearch" style="sketch=0;points=[[0,0,0],[0.25,0,0],[0.5,0,0],[0.75,0,0],[1,0,0],[0,1,0],[0.25,1,0],[0.5,1,0],[0.75,1,0],[1,1,0],[0,0.25,0],[0,0.5,0],[0,0.75,0],[1,0.25,0],[1,0.5,0],[1,0.75,0]];outlineConnect=0;fontColor=#FFFFFF;gradientColor=#945DF2;gradientDirection=north;fillColor=#5A30B5;strokeColor=#ffffff;dashed=0;verticalLabelPosition=bottom;verticalAlign=top;align=center;html=1;fontSize=12;fontStyle=1;aspect=fixed;shape=mxgraph.aws4.resourceIcon;resIcon=mxgraph.aws4.elasticsearch_service;labelBackgroundColor=default;" vertex="1" parent="1">
          <mxGeometry x="717" y="245.5" width="78" height="78" as="geometry" />
        </mxCell>
        <mxCell id="kQl4fcB4rexwGMnjng-n-20" style="edgeStyle=orthogonalEdgeStyle;rounded=0;orthogonalLoop=1;jettySize=auto;html=1;strokeWidth=2;endArrow=block;endFill=1;" edge="1" parent="1" source="kQl4fcB4rexwGMnjng-n-15" target="kQl4fcB4rexwGMnjng-n-19">
          <mxGeometry relative="1" as="geometry" />
        </mxCell>
        <mxCell id="kQl4fcB4rexwGMnjng-n-15" value="Firehose" style="sketch=0;points=[[0,0,0],[0.25,0,0],[0.5,0,0],[0.75,0,0],[1,0,0],[0,1,0],[0.25,1,0],[0.5,1,0],[0.75,1,0],[1,1,0],[0,0.25,0],[0,0.5,0],[0,0.75,0],[1,0.25,0],[1,0.5,0],[1,0.75,0]];outlineConnect=0;fontColor=#FFFFFF;gradientColor=#945DF2;gradientDirection=north;fillColor=#5A30B5;strokeColor=#ffffff;dashed=0;verticalLabelPosition=bottom;verticalAlign=top;align=center;html=1;fontSize=12;fontStyle=1;aspect=fixed;shape=mxgraph.aws4.resourceIcon;resIcon=mxgraph.aws4.kinesis_data_firehose;" vertex="1" parent="1">
          <mxGeometry x="540" y="408" width="78" height="78" as="geometry" />
        </mxCell>
        <mxCell id="kQl4fcB4rexwGMnjng-n-16" style="rounded=0;orthogonalLoop=1;jettySize=auto;html=1;strokeWidth=2;endArrow=block;endFill=1;" edge="1" parent="1" source="kQl4fcB4rexwGMnjng-n-7" target="kQl4fcB4rexwGMnjng-n-15">
          <mxGeometry relative="1" as="geometry">
            <mxPoint x="468" y="380" as="sourcePoint" />
            <mxPoint x="557" y="279" as="targetPoint" />
          </mxGeometry>
        </mxCell>
        <mxCell id="kQl4fcB4rexwGMnjng-n-19" value="" style="shape=image;verticalLabelPosition=bottom;labelBackgroundColor=default;verticalAlign=top;aspect=fixed;imageAspect=0;image=https://asset.brandfetch.io/idWxR3ZEqC/idHAtJevdd.jpeg;" vertex="1" parent="1">
          <mxGeometry x="717" y="409" width="77" height="77" as="geometry" />
        </mxCell>
        <mxCell id="kQl4fcB4rexwGMnjng-n-21" value="Subscription Filter" style="rounded=0;whiteSpace=wrap;html=1;fontStyle=1" vertex="1" parent="1">
          <mxGeometry x="230" y="338.5" width="100" height="61" as="geometry" />
        </mxCell>
        <mxCell id="kQl4fcB4rexwGMnjng-n-22" style="edgeStyle=orthogonalEdgeStyle;rounded=0;orthogonalLoop=1;jettySize=auto;html=1;strokeWidth=2;endArrow=block;endFill=1;" edge="1" parent="1" source="kQl4fcB4rexwGMnjng-n-21" target="kQl4fcB4rexwGMnjng-n-7">
          <mxGeometry relative="1" as="geometry">
            <mxPoint x="190" y="379" as="sourcePoint" />
            <mxPoint x="240" y="379" as="targetPoint" />
          </mxGeometry>
        </mxCell>
      </root>
    </mxGraphModel>
  </diagram>
</mxfile>
